<svg width="48" height="48" viewBox="0 0 48 48" fill="none" xmlns="http://www.w3.org/2000/svg">
<circle cx="24" cy="24" r="21" fill="#93BAFB"/>
<circle cx="24" cy="24" r="15" fill="#CEE0FD"/>
<g clip-path="url(#clip0_107_1880)">
<path d="M28.7513 26.5791C28.7513 23.8954 26.8599 23.1259 24.8138 22.6927L23.7293 22.4731C22.1256 22.1578 22.0019 21.6926 22.0019 21.0699C22.0019 20.2619 22.73 19.779 23.9498 19.779C25.3943 19.779 25.7644 20.5046 25.918 21.0497L25.9326 21.095C26.1143 21.5703 26.5365 21.8538 27.0633 21.8538C27.1997 21.8538 27.3223 21.833 27.414 21.8144C27.9793 21.7019 28.373 21.2519 28.373 20.7189C28.373 20.5867 28.3491 20.4557 28.301 20.3283C28.0114 19.3968 27.1974 17.9306 24.9421 17.5959V15.9984C24.9421 14.6678 22.858 14.6678 22.858 15.9984V17.6055C20.4353 17.9846 19.5432 19.6327 19.5432 21.0694C19.5432 23.6833 21.3634 24.412 23.1415 24.7788L24.3146 25.028C25.9852 25.3677 26.2797 25.8034 26.2797 26.5926C26.2797 27.557 25.4644 28.1318 24.0975 28.1318C22.3231 28.1318 21.9614 27.3328 21.7195 26.4359C21.578 25.9395 21.1294 25.6197 20.5762 25.6197C20.4556 25.6197 20.3588 25.6357 20.2421 25.6557L20.2069 25.6625C19.6349 25.7983 19.251 26.2489 19.251 26.783C19.251 26.8845 19.269 26.9708 19.2836 27.0406L19.3016 27.1205C19.5589 27.9904 20.1271 29.8902 22.9607 30.3141V31.9861C22.9607 32.6518 23.4844 33.0003 24.0024 33.0003C24.5205 33.0003 25.0447 32.6518 25.0447 31.9861V30.3433C27.2947 30.0502 28.7536 28.6128 28.7536 26.5793" fill="#3981F7"/>
</g>
<defs>
<clipPath id="clip0_107_1880">
<rect width="18" height="18" fill="white" transform="translate(15 15)"/>
</clipPath>
</defs>
</svg>
